<mxfile host="65bd71144e">
    <diagram id="V9p27jGe9Q81uSIoz_2H" name="Page-1">
        <mxGraphModel dx="1634" dy="552" grid="1" gridSize="10" guides="1" tooltips="1" connect="1" arrows="1" fold="1" page="1" pageScale="1" pageWidth="850" pageHeight="1100" math="0" shadow="0">
            <root>
                <mxCell id="0"/>
                <mxCell id="1" parent="0"/>
                <mxCell id="2" value="&lt;div style=&quot;font-size: 17px;&quot;&gt;&lt;b style=&quot;&quot;&gt;&lt;font style=&quot;font-size: 17px;&quot;&gt;College&lt;/font&gt;&lt;/b&gt;&lt;/div&gt;&lt;div style=&quot;font-size: 17px;&quot;&gt;&lt;b style=&quot;&quot;&gt;&lt;font style=&quot;font-size: 17px;&quot;&gt;&amp;nbsp;ERP System&lt;/font&gt;&lt;/b&gt;&lt;/div&gt;" style="rounded=0;whiteSpace=wrap;html=1;" vertex="1" parent="1">
                    <mxGeometry x="420" y="280" width="120" height="120" as="geometry"/>
                </mxCell>
                <mxCell id="12" style="edgeStyle=orthogonalEdgeStyle;html=1;fontSize=17;endArrow=none;endFill=0;" edge="1" parent="1" source="3" target="2">
                    <mxGeometry relative="1" as="geometry">
                        <mxPoint x="360" y="300" as="targetPoint"/>
                        <Array as="points">
                            <mxPoint x="290" y="50"/>
                            <mxPoint x="290" y="290"/>
                        </Array>
                    </mxGeometry>
                </mxCell>
                <mxCell id="3" value="Chairman" style="rounded=0;whiteSpace=wrap;html=1;fontSize=17;" vertex="1" parent="1">
                    <mxGeometry x="60" y="20" width="100" height="60" as="geometry"/>
                </mxCell>
                <mxCell id="13" style="edgeStyle=orthogonalEdgeStyle;html=1;fontSize=17;entryX=0.01;entryY=0.168;entryDx=0;entryDy=0;entryPerimeter=0;endArrow=none;endFill=0;" edge="1" parent="1" source="4" target="2">
                    <mxGeometry relative="1" as="geometry">
                        <mxPoint x="360" y="300" as="targetPoint"/>
                        <Array as="points">
                            <mxPoint x="280" y="120"/>
                            <mxPoint x="280" y="300"/>
                        </Array>
                    </mxGeometry>
                </mxCell>
                <mxCell id="4" value="Director" style="rounded=0;whiteSpace=wrap;html=1;fontSize=17;" vertex="1" parent="1">
                    <mxGeometry x="60" y="90" width="100" height="60" as="geometry"/>
                </mxCell>
                <mxCell id="15" style="edgeStyle=orthogonalEdgeStyle;html=1;fontSize=17;endArrow=none;endFill=0;entryX=0;entryY=0.25;entryDx=0;entryDy=0;" edge="1" parent="1" source="5" target="2">
                    <mxGeometry relative="1" as="geometry">
                        <mxPoint x="360" y="310" as="targetPoint"/>
                        <Array as="points">
                            <mxPoint x="270" y="190"/>
                            <mxPoint x="270" y="310"/>
                        </Array>
                    </mxGeometry>
                </mxCell>
                <mxCell id="5" value="Principle" style="rounded=0;whiteSpace=wrap;html=1;fontSize=17;" vertex="1" parent="1">
                    <mxGeometry x="60" y="160" width="100" height="60" as="geometry"/>
                </mxCell>
                <mxCell id="18" style="edgeStyle=orthogonalEdgeStyle;html=1;fontSize=17;endArrow=none;endFill=0;" edge="1" parent="1" source="6" target="2">
                    <mxGeometry relative="1" as="geometry">
                        <mxPoint x="360" y="330" as="targetPoint"/>
                        <Array as="points">
                            <mxPoint x="260" y="260"/>
                            <mxPoint x="260" y="330"/>
                        </Array>
                    </mxGeometry>
                </mxCell>
                <mxCell id="6" value="Teacher" style="rounded=0;whiteSpace=wrap;html=1;fontSize=17;" vertex="1" parent="1">
                    <mxGeometry x="60" y="230" width="100" height="60" as="geometry"/>
                </mxCell>
                <mxCell id="19" style="edgeStyle=orthogonalEdgeStyle;html=1;fontSize=17;endArrow=none;endFill=0;" edge="1" parent="1" source="7" target="2">
                    <mxGeometry relative="1" as="geometry">
                        <Array as="points">
                            <mxPoint x="240" y="330"/>
                            <mxPoint x="240" y="340"/>
                        </Array>
                    </mxGeometry>
                </mxCell>
                <mxCell id="7" value="Student&amp;nbsp;" style="rounded=0;whiteSpace=wrap;html=1;fontSize=17;" vertex="1" parent="1">
                    <mxGeometry x="60" y="300" width="100" height="60" as="geometry"/>
                </mxCell>
                <mxCell id="20" style="edgeStyle=orthogonalEdgeStyle;html=1;fontSize=17;endArrow=none;endFill=0;entryX=0.003;entryY=0.667;entryDx=0;entryDy=0;entryPerimeter=0;" edge="1" parent="1" source="8" target="2">
                    <mxGeometry relative="1" as="geometry">
                        <mxPoint x="330" y="360" as="targetPoint"/>
                        <Array as="points">
                            <mxPoint x="260" y="400"/>
                            <mxPoint x="260" y="360"/>
                        </Array>
                    </mxGeometry>
                </mxCell>
                <mxCell id="8" value="Parent&amp;nbsp;" style="rounded=0;whiteSpace=wrap;html=1;fontSize=17;" vertex="1" parent="1">
                    <mxGeometry x="60" y="370" width="100" height="60" as="geometry"/>
                </mxCell>
                <mxCell id="21" style="edgeStyle=orthogonalEdgeStyle;html=1;fontSize=17;endArrow=none;endFill=0;entryX=0.001;entryY=0.83;entryDx=0;entryDy=0;entryPerimeter=0;" edge="1" parent="1" source="9" target="2">
                    <mxGeometry relative="1" as="geometry">
                        <mxPoint x="360" y="380" as="targetPoint"/>
                        <Array as="points">
                            <mxPoint x="300" y="470"/>
                            <mxPoint x="300" y="380"/>
                        </Array>
                    </mxGeometry>
                </mxCell>
                <mxCell id="9" value="Transport" style="rounded=0;whiteSpace=wrap;html=1;fontSize=17;" vertex="1" parent="1">
                    <mxGeometry x="60" y="440" width="100" height="60" as="geometry"/>
                </mxCell>
                <mxCell id="22" style="edgeStyle=orthogonalEdgeStyle;html=1;fontSize=17;endArrow=none;endFill=0;entryX=-0.002;entryY=0.916;entryDx=0;entryDy=0;entryPerimeter=0;" edge="1" parent="1" source="10" target="2">
                    <mxGeometry relative="1" as="geometry">
                        <mxPoint x="360" y="390" as="targetPoint"/>
                        <Array as="points">
                            <mxPoint x="330" y="540"/>
                            <mxPoint x="330" y="390"/>
                        </Array>
                    </mxGeometry>
                </mxCell>
                <mxCell id="10" value="Account&amp;nbsp;" style="rounded=0;whiteSpace=wrap;html=1;fontSize=17;" vertex="1" parent="1">
                    <mxGeometry x="60" y="510" width="100" height="60" as="geometry"/>
                </mxCell>
                <mxCell id="39" style="edgeStyle=orthogonalEdgeStyle;html=1;fontSize=17;endArrow=none;endFill=0;exitX=0;exitY=0.5;exitDx=0;exitDy=0;" edge="1" source="40" parent="1">
                    <mxGeometry relative="1" as="geometry">
                        <mxPoint x="540" y="290" as="targetPoint"/>
                        <Array as="points">
                            <mxPoint x="620" y="85"/>
                            <mxPoint x="620" y="290"/>
                            <mxPoint x="540" y="290"/>
                        </Array>
                    </mxGeometry>
                </mxCell>
                <mxCell id="40" value="Chairman&lt;br&gt;Login&amp;nbsp;" style="rounded=0;whiteSpace=wrap;html=1;fontSize=17;" vertex="1" parent="1">
                    <mxGeometry x="750" y="55" width="100" height="60" as="geometry"/>
                </mxCell>
                <mxCell id="41" style="edgeStyle=orthogonalEdgeStyle;html=1;fontSize=17;entryX=1;entryY=0.25;entryDx=0;entryDy=0;endArrow=none;endFill=0;exitX=0;exitY=0.5;exitDx=0;exitDy=0;" edge="1" source="42" parent="1" target="2">
                    <mxGeometry relative="1" as="geometry">
                        <mxPoint x="1056.1999999999998" y="335.15999999999985" as="targetPoint"/>
                        <Array as="points">
                            <mxPoint x="640" y="155"/>
                            <mxPoint x="640" y="310"/>
                        </Array>
                    </mxGeometry>
                </mxCell>
                <mxCell id="42" value="Director Login" style="rounded=0;whiteSpace=wrap;html=1;fontSize=17;" vertex="1" parent="1">
                    <mxGeometry x="750" y="125" width="100" height="60" as="geometry"/>
                </mxCell>
                <mxCell id="43" style="edgeStyle=orthogonalEdgeStyle;html=1;fontSize=17;endArrow=none;endFill=0;exitX=0;exitY=0.5;exitDx=0;exitDy=0;entryX=0.996;entryY=0.331;entryDx=0;entryDy=0;entryPerimeter=0;" edge="1" source="44" parent="1" target="2">
                    <mxGeometry relative="1" as="geometry">
                        <mxPoint x="560" y="330" as="targetPoint"/>
                        <Array as="points">
                            <mxPoint x="650" y="225"/>
                            <mxPoint x="650" y="320"/>
                            <mxPoint x="560" y="320"/>
                        </Array>
                    </mxGeometry>
                </mxCell>
                <mxCell id="44" value="Principle Login" style="rounded=0;whiteSpace=wrap;html=1;fontSize=17;" vertex="1" parent="1">
                    <mxGeometry x="750" y="195" width="100" height="60" as="geometry"/>
                </mxCell>
                <mxCell id="45" style="edgeStyle=orthogonalEdgeStyle;html=1;fontSize=17;endArrow=none;endFill=0;exitX=0;exitY=0.399;exitDx=0;exitDy=0;exitPerimeter=0;entryX=0.997;entryY=0.405;entryDx=0;entryDy=0;entryPerimeter=0;" edge="1" source="46" parent="1" target="2">
                    <mxGeometry relative="1" as="geometry">
                        <mxPoint x="1055" y="365" as="targetPoint"/>
                        <Array as="points">
                            <mxPoint x="750" y="295"/>
                            <mxPoint x="680" y="295"/>
                            <mxPoint x="680" y="330"/>
                            <mxPoint x="542" y="330"/>
                            <mxPoint x="542" y="329"/>
                        </Array>
                    </mxGeometry>
                </mxCell>
                <mxCell id="46" value="Teacher&lt;br&gt;Login" style="rounded=0;whiteSpace=wrap;html=1;fontSize=17;" vertex="1" parent="1">
                    <mxGeometry x="751" y="265" width="100" height="60" as="geometry"/>
                </mxCell>
                <mxCell id="47" style="edgeStyle=orthogonalEdgeStyle;html=1;fontSize=17;endArrow=none;endFill=0;exitX=0;exitY=0.5;exitDx=0;exitDy=0;entryX=1;entryY=0.5;entryDx=0;entryDy=0;" edge="1" source="48" parent="1" target="2">
                    <mxGeometry relative="1" as="geometry">
                        <mxPoint x="630" y="350" as="targetPoint"/>
                        <Array as="points">
                            <mxPoint x="660" y="365"/>
                            <mxPoint x="660" y="350"/>
                            <mxPoint x="630" y="350"/>
                            <mxPoint x="630" y="340"/>
                        </Array>
                    </mxGeometry>
                </mxCell>
                <mxCell id="48" value="Student&lt;br&gt;Login&amp;nbsp;" style="rounded=0;whiteSpace=wrap;html=1;fontSize=17;" vertex="1" parent="1">
                    <mxGeometry x="750" y="335" width="100" height="60" as="geometry"/>
                </mxCell>
                <mxCell id="49" style="edgeStyle=orthogonalEdgeStyle;html=1;fontSize=17;endArrow=none;endFill=0;exitX=0;exitY=0.5;exitDx=0;exitDy=0;entryX=1.006;entryY=0.675;entryDx=0;entryDy=0;entryPerimeter=0;" edge="1" source="50" parent="1" target="2">
                    <mxGeometry relative="1" as="geometry">
                        <mxPoint x="640" y="390" as="targetPoint"/>
                        <Array as="points">
                            <mxPoint x="720" y="435"/>
                            <mxPoint x="720" y="395"/>
                            <mxPoint x="640" y="395"/>
                            <mxPoint x="640" y="361"/>
                        </Array>
                    </mxGeometry>
                </mxCell>
                <mxCell id="50" value="Parent &lt;br&gt;Login" style="rounded=0;whiteSpace=wrap;html=1;fontSize=17;" vertex="1" parent="1">
                    <mxGeometry x="750" y="405" width="100" height="60" as="geometry"/>
                </mxCell>
                <mxCell id="51" style="edgeStyle=orthogonalEdgeStyle;html=1;fontSize=17;endArrow=none;endFill=0;exitX=0;exitY=0.5;exitDx=0;exitDy=0;entryX=1;entryY=0.75;entryDx=0;entryDy=0;" edge="1" source="52" parent="1" target="2">
                    <mxGeometry relative="1" as="geometry">
                        <mxPoint x="640" y="470" as="targetPoint"/>
                        <Array as="points">
                            <mxPoint x="670" y="505"/>
                            <mxPoint x="670" y="415"/>
                            <mxPoint x="610" y="415"/>
                            <mxPoint x="610" y="370"/>
                        </Array>
                    </mxGeometry>
                </mxCell>
                <mxCell id="52" value="Transport Details" style="rounded=0;whiteSpace=wrap;html=1;fontSize=17;" vertex="1" parent="1">
                    <mxGeometry x="750" y="475" width="100" height="60" as="geometry"/>
                </mxCell>
                <mxCell id="53" style="edgeStyle=orthogonalEdgeStyle;html=1;fontSize=17;endArrow=none;endFill=0;exitX=0;exitY=0.5;exitDx=0;exitDy=0;entryX=1;entryY=0.917;entryDx=0;entryDy=0;entryPerimeter=0;" edge="1" source="54" parent="1" target="2">
                    <mxGeometry relative="1" as="geometry">
                        <mxPoint x="570" y="390" as="targetPoint"/>
                        <Array as="points">
                            <mxPoint x="640" y="575"/>
                            <mxPoint x="640" y="425"/>
                            <mxPoint x="580" y="425"/>
                            <mxPoint x="580" y="390"/>
                        </Array>
                    </mxGeometry>
                </mxCell>
                <mxCell id="54" value="Account&amp;nbsp;&lt;br&gt;Details" style="rounded=0;whiteSpace=wrap;html=1;fontSize=17;" vertex="1" parent="1">
                    <mxGeometry x="750" y="545" width="100" height="60" as="geometry"/>
                </mxCell>
                <mxCell id="55" value="" style="ellipse;whiteSpace=wrap;html=1;fontSize=17;" vertex="1" parent="1">
                    <mxGeometry x="1130" y="320" width="120" height="80" as="geometry"/>
                </mxCell>
                <mxCell id="56" value="" style="ellipse;whiteSpace=wrap;html=1;fontSize=17;" vertex="1" parent="1">
                    <mxGeometry x="-510" y="315" width="120" height="80" as="geometry"/>
                </mxCell>
            </root>
        </mxGraphModel>
    </diagram>
</mxfile>